<svg xmlns="http://www.w3.org/2000/svg" viewBox="0 0 32 32" fill="none">
  <rect width="32" height="32" rx="7" fill="#0d7377"/>
  <g transform="translate(4, 5)" stroke-linecap="round" stroke-linejoin="round">
    <!-- Sun -->
    <circle cx="12" cy="5" r="2.5" fill="#f0a04b" stroke="none"/>
    <path d="M12 1v1" stroke="#f0a04b" stroke-width="1.5"/>
    <path d="m8.5 3.5.5.5" stroke="#f0a04b" stroke-width="1.5"/>
    <path d="m15 4 .5-.5" stroke="#f0a04b" stroke-width="1.5"/>

    <!-- Briefcase -->
    <path d="M3 8a1.5 1.5 0 0 1 1.5-1.5h15A1.5 1.5 0 0 1 21 8v7.5a1.5 1.5 0 0 1-1.5 1.5h-15A1.5 1.5 0 0 1 3 15.5V8z" stroke="white" stroke-width="1.8" fill="none"/>
    <path d="M8 6.5V5a1.5 1.5 0 0 1 1.5-1.5h5A1.5 1.5 0 0 1 16 5v1.5" stroke="white" stroke-width="1.8" fill="none"/>
    <path d="M3 11a16 16 0 0 0 18 0" stroke="white" stroke-width="1.8" fill="none"/>
  </g>
</svg>
