<svg xmlns="http://www.w3.org/2000/svg" width="48" height="48" viewBox="0 0 24 24" fill="none" stroke-linecap="round" stroke-linejoin="round">
  <!-- Sun rising behind briefcase (half visible) -->
  <circle cx="12" cy="7" r="3" fill="#f0a04b" stroke="none"/>
  <path d="M12 2v1.5" stroke="#f0a04b" stroke-width="2"/>
  <path d="m7.64 4.64.7.7" stroke="#f0a04b" stroke-width="2"/>
  <path d="m15.66 5.34.7-.7" stroke="#f0a04b" stroke-width="2"/>
  <path d="M5 7h1.5" stroke="#f0a04b" stroke-width="2"/>
  <path d="M17.5 7h1.5" stroke="#f0a04b" stroke-width="2"/>

  <!-- Briefcase body (Tabler) -->
  <path d="M3 9a2 2 0 0 1 2-2h14a2 2 0 0 1 2 2v9a2 2 0 0 1-2 2H5a2 2 0 0 1-2-2V9z" stroke="#0d7377" stroke-width="2" fill="none"/>
  <path d="M8 7V5a2 2 0 0 1 2-2h4a2 2 0 0 1 2 2v2" stroke="#0d7377" stroke-width="2" fill="none"/>
  <path d="M12 12v.01" stroke="#0d7377" stroke-width="2"/>
  <path d="M3 13a20 20 0 0 0 18 0" stroke="#0d7377" stroke-width="2" fill="none"/>
</svg>
